{
	"asset":{
		"generator":"Khronos glTF Blender I/O v4.0.44",
		"version":"2.0"
	},
	"scene":0,
	"scenes":[
		{
			"name":"Scene",
			"nodes":[
				0,
				1,
				2,
				3
			]
		}
	],
	"nodes":[
		{
			"mesh":0,
			"name":"TireRoundel",
			"translation":[
				1.617525339126587,
				0.4487795829772949,
				0.04987446591258049
			]
		},
		{
			"mesh":1,
			"name":"TireRim",
			"translation":[
				1.617525339126587,
				0.4487795829772949,
				0.035376131534576416
			]
		},
		{
			"mesh":2,
			"name":"TireBolts",
			"translation":[
				1.617525339126587,
				0.4487795829772949,
				0.03678091987967491
			]
		},
		{
			"mesh":3,
			"name":"Plane",
			"translation":[
				1.6195577383041382,
				0.4488266706466675,
				0.046461768448352814
			]
		}
	],
	"materials":[
		{
			"doubleSided":true,
			"name":"ChromeGE",
			"pbrMetallicRoughness":{
				"baseColorFactor":[
					1,
					1,
					1,
					1
				],
				"metallicFactor":1,
				"roughnessFactor":0.5
			}
		},
		{
			"doubleSided":true,
			"name":"BMWWhite",
			"pbrMetallicRoughness":{
				"baseColorFactor":[
					1,
					1,
					1,
					1
				],
				"metallicFactor":0,
				"roughnessFactor":0.5
			}
		},
		{
			"doubleSided":true,
			"name":"BlackPlasticGE",
			"pbrMetallicRoughness":{
				"baseColorFactor":[
					0.10106514394283295,
					0.10106514394283295,
					0.10106514394283295,
					1
				],
				"metallicFactor":1,
				"roughnessFactor":0.5
			}
		},
		{
			"doubleSided":true,
			"name":"BMWBlue",
			"pbrMetallicRoughness":{
				"baseColorFactor":[
					0.050867218524217606,
					0.2720922529697418,
					0.8000000715255737,
					1
				],
				"metallicFactor":0,
				"roughnessFactor":0.5
			}
		},
		{
			"doubleSided":true,
			"name":"TireGE",
			"pbrMetallicRoughness":{
				"baseColorFactor":[
					0.010022824630141258,
					0.010022824630141258,
					0.010022824630141258,
					1
				],
				"metallicFactor":0,
				"roughnessFactor":0.5
			}
		}
	],
	"meshes":[
		{
			"name":"Mesh.000",
			"primitives":[
				{
					"attributes":{
						"POSITION":0,
						"NORMAL":1
					},
					"indices":2,
					"material":0
				},
				{
					"attributes":{
						"POSITION":3,
						"NORMAL":4
					},
					"indices":5,
					"material":1
				},
				{
					"attributes":{
						"POSITION":6,
						"NORMAL":7
					},
					"indices":8,
					"material":2
				},
				{
					"attributes":{
						"POSITION":9,
						"NORMAL":10
					},
					"indices":11,
					"material":3
				}
			]
		},
		{
			"name":"Plane",
			"primitives":[
				{
					"attributes":{
						"COLOR_0":12,
						"POSITION":13,
						"NORMAL":14,
						"TEXCOORD_0":15
					},
					"indices":16,
					"material":0
				}
			]
		},
		{
			"name":"Cylinder",
			"primitives":[
				{
					"attributes":{
						"POSITION":17,
						"NORMAL":18
					},
					"indices":19,
					"material":0
				}
			]
		},
		{
			"name":"Plane.004",
			"primitives":[
				{
					"attributes":{
						"POSITION":20,
						"NORMAL":21,
						"TEXCOORD_0":22
					},
					"indices":23,
					"material":4
				}
			]
		}
	],
	"accessors":[
		{
			"bufferView":0,
			"componentType":5126,
			"count":3880,
			"max":[
				0.04211782291531563,
				0.04211778938770294,
				0.10234908759593964
			],
			"min":[
				-0.042117808014154434,
				-0.04211784526705742,
				0.093631312251091
			],
			"type":"VEC3"
		},
		{
			"bufferView":1,
			"componentType":5126,
			"count":3880,
			"type":"VEC3"
		},
		{
			"bufferView":2,
			"componentType":5123,
			"count":13104,
			"type":"SCALAR"
		},
		{
			"bufferView":3,
			"componentType":5126,
			"count":92,
			"max":[
				0.025309652090072632,
				0.02554897405207157,
				0.10203325003385544
			],
			"min":[
				-0.02530963532626629,
				-0.025549110025167465,
				0.09776133298873901
			],
			"type":"VEC3"
		},
		{
			"bufferView":4,
			"componentType":5126,
			"count":92,
			"type":"VEC3"
		},
		{
			"bufferView":5,
			"componentType":5123,
			"count":216,
			"type":"SCALAR"
		},
		{
			"bufferView":6,
			"componentType":5126,
			"count":96,
			"max":[
				0.04130687564611435,
				0.04130680114030838,
				0.09984923899173737
			],
			"min":[
				-0.04130685701966286,
				-0.041306931525468826,
				0.09665174782276154
			],
			"type":"VEC3"
		},
		{
			"bufferView":7,
			"componentType":5126,
			"count":96,
			"type":"VEC3"
		},
		{
			"bufferView":8,
			"componentType":5123,
			"count":384,
			"type":"SCALAR"
		},
		{
			"bufferView":9,
			"componentType":5126,
			"count":92,
			"max":[
				0.025549057871103287,
				0.025309590622782707,
				0.10203336179256439
			],
			"min":[
				-0.02554902620613575,
				-0.025309694930911064,
				0.09776144474744797
			],
			"type":"VEC3"
		},
		{
			"bufferView":10,
			"componentType":5126,
			"count":92,
			"type":"VEC3"
		},
		{
			"bufferView":11,
			"componentType":5123,
			"count":216,
			"type":"SCALAR"
		},
		{
			"bufferView":12,
			"componentType":5123,
			"count":6800,
			"normalized":true,
			"type":"VEC4"
		},
		{
			"bufferView":13,
			"componentType":5126,
			"count":6800,
			"max":[
				0.4058205783367157,
				0.4058205187320709,
				0.1685541719198227
			],
			"min":[
				-0.4058205783367157,
				-0.4058205187320709,
				-0.19097360968589783
			],
			"type":"VEC3"
		},
		{
			"bufferView":14,
			"componentType":5126,
			"count":6800,
			"type":"VEC3"
		},
		{
			"bufferView":15,
			"componentType":5126,
			"count":6800,
			"type":"VEC2"
		},
		{
			"bufferView":16,
			"componentType":5123,
			"count":10128,
			"type":"SCALAR"
		},
		{
			"bufferView":17,
			"componentType":5126,
			"count":130,
			"max":[
				0.08463861793279648,
				0.08899429440498352,
				0.12073313444852829
			],
			"min":[
				-0.08463861793279648,
				-0.07514660060405731,
				0.05803130567073822
			],
			"type":"VEC3"
		},
		{
			"bufferView":18,
			"componentType":5126,
			"count":130,
			"type":"VEC3"
		},
		{
			"bufferView":19,
			"componentType":5123,
			"count":720,
			"type":"SCALAR"
		},
		{
			"bufferView":20,
			"componentType":5126,
			"count":416,
			"max":[
				0.4927213788032532,
				0.4927213788032532,
				0.14389468729496002
			],
			"min":[
				-0.4927213788032532,
				-0.4927213788032532,
				-0.24914392828941345
			],
			"type":"VEC3"
		},
		{
			"bufferView":21,
			"componentType":5126,
			"count":416,
			"type":"VEC3"
		},
		{
			"bufferView":22,
			"componentType":5126,
			"count":416,
			"type":"VEC2"
		},
		{
			"bufferView":23,
			"componentType":5123,
			"count":2304,
			"type":"SCALAR"
		}
	],
	"bufferViews":[
		{
			"buffer":0,
			"byteLength":46560,
			"byteOffset":0,
			"target":34962
		},
		{
			"buffer":0,
			"byteLength":46560,
			"byteOffset":46560,
			"target":34962
		},
		{
			"buffer":0,
			"byteLength":26208,
			"byteOffset":93120,
			"target":34963
		},
		{
			"buffer":0,
			"byteLength":1104,
			"byteOffset":119328,
			"target":34962
		},
		{
			"buffer":0,
			"byteLength":1104,
			"byteOffset":120432,
			"target":34962
		},
		{
			"buffer":0,
			"byteLength":432,
			"byteOffset":121536,
			"target":34963
		},
		{
			"buffer":0,
			"byteLength":1152,
			"byteOffset":121968,
			"target":34962
		},
		{
			"buffer":0,
			"byteLength":1152,
			"byteOffset":123120,
			"target":34962
		},
		{
			"buffer":0,
			"byteLength":768,
			"byteOffset":124272,
			"target":34963
		},
		{
			"buffer":0,
			"byteLength":1104,
			"byteOffset":125040,
			"target":34962
		},
		{
			"buffer":0,
			"byteLength":1104,
			"byteOffset":126144,
			"target":34962
		},
		{
			"buffer":0,
			"byteLength":432,
			"byteOffset":127248,
			"target":34963
		},
		{
			"buffer":0,
			"byteLength":54400,
			"byteOffset":127680,
			"target":34962
		},
		{
			"buffer":0,
			"byteLength":81600,
			"byteOffset":182080,
			"target":34962
		},
		{
			"buffer":0,
			"byteLength":81600,
			"byteOffset":263680,
			"target":34962
		},
		{
			"buffer":0,
			"byteLength":54400,
			"byteOffset":345280,
			"target":34962
		},
		{
			"buffer":0,
			"byteLength":20256,
			"byteOffset":399680,
			"target":34963
		},
		{
			"buffer":0,
			"byteLength":1560,
			"byteOffset":419936,
			"target":34962
		},
		{
			"buffer":0,
			"byteLength":1560,
			"byteOffset":421496,
			"target":34962
		},
		{
			"buffer":0,
			"byteLength":1440,
			"byteOffset":423056,
			"target":34963
		},
		{
			"buffer":0,
			"byteLength":4992,
			"byteOffset":424496,
			"target":34962
		},
		{
			"buffer":0,
			"byteLength":4992,
			"byteOffset":429488,
			"target":34962
		},
		{
			"buffer":0,
			"byteLength":3328,
			"byteOffset":434480,
			"target":34962
		},
		{
			"buffer":0,
			"byteLength":4608,
			"byteOffset":437808,
			"target":34963
		}
	],
	"buffers":[
		{
			"byteLength":442416,
			"uri":"BMWWheel.bin"
		}
	]
}
